{"title":"Across.the.Line.The.Exodus.of.Charlie.Wright.2011.DVDRip.DMT","uid":6395045,"size":722957236,"categoryP":"video","categoryS":"movies","magnet":"?xt=urn:btih:10ac9e5f54603f318020c750ec21e18030711d28&amp;dn=Across.the.Line.The.Exodus.of.Charlie.Wright.2011.DVDRip.DMT&amp;tr=udp%3A%2F%2Ftracker.openbittorrent.com%3A80&amp;tr=udp%3A%2F%2Fopen.demonii.com%3A1337&amp;tr=udp%3A%2F%2Ftracker.coppersurfer.tk%3A6969&amp;tr=udp%3A%2F%2Fexodus.desync.com%3A6969","seeders":1,"leechers":0,"uploader":"NLUPPER002","files":-1,"time":1305490844,"description":"Across.the.Line.The.Exodus.of.Charlie.Wright.2011.DVDRip.DMT\n.\nSubs: Dutch Srt file\n.\nActeurs: !!! Aidan Quinn / Mario Van Peebles / Luke Goss / Gina Gershon / Andy Garcia / Gary Daniels\n.\n[IMG]http://img683.imageshack.us/img683/2726/frontjy.jpg[/IMG]\n.\nVerenigde Staten\nMisdaad / Drama\n95 minuten\n.\ngeregisseerd door R. Ellis Frazier\nmet Aidan Quinn, Andy Garcia en Mario Van Peebles\n.\nHet verhaal gaat over Charlie Wright (Aidan Quinn), een miljardair en financiÃƒâ„¢le whizzkid die in een zelf opgelegd ballingschap gaat in Tijuana nadat openbaar wordt dat zijn imperium het grootste pyramidespel van de VS blijkt te zijn. Terwijl hij op zoek gaat naar zijn vrouw die hij 25 jaar geleden verlaten heeft wordt hij gezocht door een Mexicaanse gangster, een federale agent en een stel criminelen die gestuurd zijn door een voormalige cliÃƒâ„¢nt die zijn geld terug wil.\n.\nVanaf 17 mei op video.\n. &lt;a href=&quot;\nhttp://www.moviemeter.nl/film/68940.&quot; rel=&quot;nofollow&quot; target=&quot;_NEW&quot;&gt;\nhttp://www.moviemeter.nl/film/68940.&lt;/a&gt;\n.\nPLOT\n.\nThe story centers on Charlie, a Los Angeles billionaire financial whiz who goes into self-imposed exile in Tijuana after his empire is revealed to have been a Ponzi scheme... \n. &lt;a href=&quot;\nhttp://www.imdb.com/title/tt1663193/&quot; rel=&quot;nofollow&quot; target=&quot;_NEW&quot;&gt;\nhttp://www.imdb.com/title/tt1663193/&lt;/a&gt;\n.\nINFO\n.\nComplete name                    : E:\\Across.the.Line.The.Exodus.of.Charlie.Wright.2011.DVDRip.DMT\\Across.the.Line.The.Exodus.of.Charlie.Wright.2011.DVDRip.DMT.avi\nFormat                           : AVI\nFormat/Info                      : Audio Video Interleave\nFile size                        : 689 MiB\nDuration                         : 1h 30mn\nOverall bit rate                 : 1 066 Kbps\nMovie name                       : ACROSSTHELINE.Title1.DVDRip\nWriting application              : Lavf52.78.4\nOriginal source form/Name        : ACROSSTHELINE\n\nVideo\nID                               : 0\nFormat                           : AVC\nFormat/Info                      : Advanced Video Codec\nCodec ID                         : H264\nDuration                         : 1h 30mn\nBit rate                         : 925 Kbps\nWidth                            : 720 pixels\nHeight                           : 406 pixels\nDisplay aspect ratio             : 16:9\nFrame rate                       : 25.000 fps\nColor space                      : YUV\nChroma subsampling               : 4:2:0\nBits/(Pixel*Frame)               : 0.127\nStream size                      : 598 MiB (87%)\n\nAudio\nID                               : 1\nFormat                           : MPEG Audio\nFormat version                   : Version 1\nFormat profile                   : Layer 3\nMode                             : Joint stereo\nMode extension                   : MS Stereo\nCodec ID                         : 55\nCodec ID/Hint                    : MP3\nDuration                         : 1h 30mn\nBit rate mode                    : Constant\nBit rate                         : 128 Kbps\nChannel(s)                       : 2 channels\nSampling rate                    : 48.0 KHz\nStream size                      : 82.8 MiB (12%)\nAlignment                        : Aligned on interleaves\nInterleave, duration             : 24 ms (0.60 video frame)\nInterleave, preload duration     : 24 ms\n\n\n.\nEnjoy\n","torrent":{"xt":"urn:btih:10ac9e5f54603f318020c750ec21e18030711d28","amp;dn":"Across.the.Line.The.Exodus.of.Charlie.Wright.2011.DVDRip.DMT","amp;tr":["udp%3A%2F%2Ftracker.openbittorrent.com%3A80","udp%3A%2F%2Fopen.demonii.com%3A1337","udp%3A%2F%2Ftracker.coppersurfer.tk%3A6969","udp%3A%2F%2Fexodus.desync.com%3A6969"],"infoHash":"10ac9e5f54603f318020c750ec21e18030711d28","infoHashBuffer":{"type":"Buffer","data":[16,172,158,95,84,96,63,49,128,32,199,80,236,33,225,128,48,113,29,40]},"announce":[],"urlList":[]}}